<svg width="38" height="50" viewBox="0 0 38 50" fill="currentColor" xmlns="http://www.w3.org/2000/svg">
<path d="M25.7533 32.2172C24.7568 31.8391 23.9091 31.3143 23.2092 30.6409C22.5092 29.9676 21.9641 29.1545 21.5719 28.1997C21.1798 27.245 20.9833 26.2048 20.9833 25.0783C20.9833 23.9518 21.1789 22.9099 21.5719 21.9517C21.9641 20.9935 22.5101 20.1778 23.2092 19.5053C23.9091 18.832 24.7568 18.3072 25.7533 17.9291C26.7497 17.551 27.8339 17.3628 29.0069 17.3628C30.1798 17.3628 31.2397 17.5501 32.2292 17.9239C33.2187 18.2985 34.0629 18.8199 34.7629 19.4898C35.4628 20.1596 36.0097 20.9745 36.4062 21.9362C36.8018 22.8978 37 23.9449 37 25.0783C37 26.2117 36.8018 27.2571 36.4062 28.2153C36.0106 29.1735 35.4628 29.9875 34.7629 30.6565C34.0629 31.3263 33.2187 31.8477 32.2292 32.2224C31.2397 32.597 30.1659 32.7835 29.0069 32.7835C27.8479 32.7835 26.7488 32.5944 25.7533 32.2172ZM30.9206 28.514C31.4893 28.16 31.9275 27.6827 32.2353 27.0819C32.5431 26.4811 32.6961 25.8129 32.6961 25.0783C32.6961 24.3437 32.5422 23.6756 32.2353 23.0748C31.9275 22.474 31.4901 21.9966 30.9206 21.6427C30.352 21.2887 29.7103 21.1118 28.9964 21.1118C28.2826 21.1118 27.567 21.287 27.0018 21.6375C26.4367 21.988 25.9967 22.4653 25.682 23.0696C25.3672 23.6738 25.2107 24.3437 25.2107 25.0783C25.2107 25.8129 25.3681 26.4811 25.682 27.0819C25.9967 27.6827 26.4384 28.16 27.0071 28.514C27.5757 28.8679 28.2895 29.0448 28.9964 29.0448C29.7033 29.0448 30.3511 28.8679 30.9206 28.514Z" fill="#101010"/>
<path d="M16.4838 25.8408C16.0221 25.3824 16.0221 24.6383 16.4838 24.1799L21.3477 19.3511C21.3677 19.3312 21.3538 19.2967 21.3251 19.2967L14.757 19.3554C14.7483 19.3554 14.7405 19.3588 14.7344 19.3649L13.2424 20.8462C12.7485 21.3365 11.9486 21.3365 11.4547 20.8462L6.60127 16.0294C6.59518 16.0233 6.58736 16.0199 6.57866 16.0199L1.73303 16C1.08266 15.9974 0.754861 16.7778 1.21482 17.2344L8.07244 24.0418C8.61065 24.5762 8.61065 25.4428 8.07244 25.978L4.48408 29.5406C4.04238 29.9791 4.35366 30.7284 4.97794 30.731L9.8514 30.7508C9.8601 30.7508 9.86792 30.7474 9.87401 30.7413L11.5599 29.0675C11.9947 28.6359 12.6998 28.6359 13.1346 29.0675L18.0932 33.9905C18.0993 33.9965 18.1072 34 18.1158 34L23.0658 33.9965C23.6684 33.9965 23.9701 33.2732 23.544 32.8502L16.483 25.8399L16.4838 25.8408Z" fill="#101010"/>
</svg>
